# xmcd CD database file generated by Grip 3.1.2
# 
# Track frame offsets:
#       150
#       14388
#       35162
#       59345
#       79780
#       99026
#       114126
#       131844
#       154132
#       171865
#       194851
#       213013
#       232441
#       252296
#       273121
#       294982
# 
# Disc length: 4205 seconds
# 
# Revision: 1
# Processed by: cddbd v1.4PL0 Copyright (c) Steve Scherf et al.
# Submitted via: Grip 3.1.2
# 
DISCID=e1106b10
DTITLE=R Kelly - The R in R&B Greatest Hits Volume 1
DYEAR=2003
DGENRE=R&B
TTITLE0=Ignition (remix)
TTITLE1=Your Body Callin'
TTITLE2=I Believe I Can Fly
TTITLE3=I Could Turn Back The Hands Of Time
TTITLE4=Bump N Grind
TTITLE5=She's Got That Vibe
TTITLE6=Thank God Its Friday
TTITLE7=Gotham City
TTITLE8=The World's Greatest
TTITLE9=I Wish
TTITLE10=Fiesta Remix
TTITLE11=Home Alone
TTITLE12=Down Low (Nobody Has To Know)
TTITLE13=When A Woman's Fed Up
TTITLE14=I'm Your Angel
TTITLE15=The Storm Is Over Now
EXTD=
EXTT0=
EXTT1=
EXTT2=
EXTT3=
EXTT4=
EXTT5=
EXTT6=
EXTT7=
EXTT8=
EXTT9=
EXTT10=
EXTT11=
EXTT12=
EXTT13=
EXTT14=
EXTT15=
PLAYORDER=
